version = 1
nColumns = 19
nRows = 10
inDegrees = yes
endheader 
time	r_ground_force_vx	r_ground_force_vy	r_ground_force_vz	r_ground_force_px	r_ground_force_py	r_ground_force_pz	l_ground_force_vx	l_ground_force_vy	l_ground_force_vz	l_ground_force_px	l_ground_force_py	l_ground_force_pz	r_ground_torque_x	r_ground_torque_y	r_ground_torque_z	l_ground_torque_x	l_ground_torque_y	l_ground_torque_z	
          0.14057959	        100.88196415	        638.75222294	        -28.37280561	          0.26545346	          0.00000000	          0.07934508	          0.00000000	          0.00000000	          0.00000000	          0.00000000	          0.00000000	          0.00000000	          0.00000000	          0.41166790	          0.00000000	          0.00000000	          0.00000000	          0.00000000	
          0.14145147	        103.29661763	        627.24017483	        -26.30210750	          0.26649208	          0.00000000	          0.07951573	          0.00000000	          0.00000000	          0.00000000	          0.00000000	          0.00000000	          0.00000000	          0.00000000	          0.43551550	          0.00000000	          0.00000000	          0.00000000	          0.00000000	
          0.14420626	        109.87623404	        591.95648254	        -20.21547518	          0.26992817	          0.00000000	          0.08010056	          0.00000000	          0.00000000	          0.00000000	          0.00000000	          0.00000000	          0.00000000	          0.00000000	          0.54203723	          0.00000000	          0.00000000	          0.00000000	          0.00000000	
          0.14620277	        114.78669629	        570.33570388	        -17.43914944	          0.27182524	          0.00000000	          0.08062452	          0.00000000	          0.00000000	          0.00000000	          0.00000000	          0.00000000	          0.00000000	          0.00000000	          0.61713074	          0.00000000	          0.00000000	          0.00000000	          0.00000000	
          0.14707465	        117.31650225	        564.22147181	        -17.56482923	          0.27193972	          0.00000000	          0.08093400	          0.00000000	          0.00000000	          0.00000000	          0.00000000	          0.00000000	          0.00000000	          0.00000000	          0.61231200	          0.00000000	          0.00000000	          0.00000000	          0.00000000	
          0.14982944	        126.02504449	        544.09982054	        -17.98153496	          0.27200891	          0.00000000	          0.08192998	          0.00000000	          0.00000000	          0.00000000	          0.00000000	          0.00000000	          0.00000000	          0.00000000	          0.57045202	          0.00000000	          0.00000000	          0.00000000	          0.00000000	
          0.15182596	        132.47588023	        528.18607623	        -17.70070053	          0.27224796	          0.00000000	          0.08261446	          0.00000000	          0.00000000	          0.00000000	          0.00000000	          0.00000000	          0.00000000	          0.00000000	          0.54827369	          0.00000000	          0.00000000	          0.00000000	          0.00000000	
          0.15269784	        135.21594545	        521.46628672	        -17.59558065	          0.27236126	          0.00000000	          0.08290539	          0.00000000	          0.00000000	          0.00000000	          0.00000000	          0.00000000	          0.00000000	          0.00000000	          0.53928210	          0.00000000	          0.00000000	          0.00000000	          0.00000000	
          0.15545262	        142.43187809	        501.08340954	        -17.41348512	          0.27270936	          0.00000000	          0.08378195	          0.00000000	          0.00000000	          0.00000000	          0.00000000	          0.00000000	          0.00000000	          0.00000000	          0.51491767	          0.00000000	          0.00000000	          0.00000000	          0.00000000	
          0.15744914	        146.62716357	        486.93813434	        -17.33824422	          0.27295773	          0.00000000	          0.08438322	          0.00000000	          0.00000000	          0.00000000	          0.00000000	          0.00000000	          0.00000000	          0.00000000	          0.50166045	          0.00000000	          0.00000000	          0.00000000	          0.00000000	
